<?xml version="1.0" standalone="no"?>
<!DOCTYPE svg PUBLIC "-//W3C//DTD SVG 20010904//EN"
 "http://www.w3.org/TR/2001/REC-SVG-20010904/DTD/svg10.dtd">
<svg version="1.0" xmlns="http://www.w3.org/2000/svg"
 width="1024.000000pt" height="1024.000000pt" viewBox="0 0 1024.000000 1024.000000"
 preserveAspectRatio="xMidYMid meet">
<g transform="translate(0.000000,1024.000000) scale(0.100000,-0.100000)"
fill="#ffffff" stroke="#000000">
<path d="M0 5120 l0 -5120 5120 0 5120 0 0 5120 0 5120 -5120 0 -5120 0 0
-5120z m5780 1473 c360 -220 707 -432 770 -470 l115 -71 3 -860 2 -859 -37
-26 c-21 -13 -112 -70 -203 -125 -91 -54 -208 -125 -260 -157 -740 -452 -1047
-638 -1055 -638 -5 0 -109 61 -230 135 -121 74 -454 278 -740 452 -286 175
-535 329 -553 343 l-32 24 2 857 3 856 80 50 c44 27 193 118 330 201 396 240
1046 639 1090 668 22 14 45 24 50 23 6 -2 305 -183 665 -403z"/>
<path d="M4725 6477 c-210 -127 -463 -281 -563 -342 -99 -60 -178 -113 -174
-117 4 -4 114 -72 245 -152 212 -129 241 -144 260 -134 12 6 146 88 297 181
151 93 284 174 296 179 17 8 66 -18 310 -168 159 -97 303 -186 321 -196 l32
-19 213 131 c249 154 278 173 278 182 0 3 -55 40 -122 81 -68 40 -235 142
-373 227 -498 304 -624 380 -632 380 -4 0 -179 -105 -388 -233z"/>
<path d="M4888 5722 c-157 -96 -204 -130 -195 -138 7 -6 105 -68 219 -138
l208 -126 205 126 c113 70 205 130 205 134 0 5 -15 17 -32 28 -18 10 -114 69
-213 131 -99 61 -182 111 -185 111 -3 -1 -98 -58 -212 -128z"/>
<path d="M3832 5153 l3 -677 315 -193 c173 -106 340 -208 370 -227 30 -18 148
-90 263 -159 l207 -127 -2 312 -3 312 -135 83 c-74 46 -191 118 -260 160 -69
42 -149 92 -177 110 l-53 33 0 367 -1 368 -147 89 c-81 49 -197 120 -258 157
-61 38 -114 69 -117 69 -4 0 -6 -305 -5 -677z"/>
<path d="M6230 5734 c-85 -52 -201 -123 -257 -157 l-103 -62 0 -370 0 -370
-188 -116 c-103 -64 -247 -153 -319 -198 l-133 -82 0 -310 0 -311 33 20 c17
11 221 136 452 277 231 142 480 294 553 339 l132 81 0 677 c0 373 -3 678 -7
678 -5 0 -78 -43 -163 -96z"/>
<path d="M4566 5144 c1 -129 5 -239 10 -244 12 -11 385 -241 402 -247 10 -4
12 45 10 238 l-3 244 -200 122 c-110 67 -204 123 -210 123 -6 0 -10 -84 -9
-236z"/>
<path d="M5570 5332 c-41 -26 -135 -84 -207 -127 l-133 -80 0 -247 0 -248 73
45 c39 25 135 85 212 133 l140 87 3 243 c1 133 -1 242 -5 242 -5 0 -42 -22
-83 -48z"/>
</g>
</svg>
